<svg id="Camada_1" data-name="Camada 1" xmlns="http://www.w3.org/2000/svg" viewBox="0 0 488.79 474.79"><defs><style>.cls-1,.cls-20,.cls-21,.cls-22{fill:none;}.cls-1,.cls-21,.cls-22{stroke:#cca434;}.cls-1{stroke-linecap:round;stroke-linejoin:round;stroke-width:4px;}.cls-2{font-size:50px;}.cls-15,.cls-16,.cls-2{fill:#cca434;}.cls-15,.cls-2{font-family:BemboStd, Bembo Std;}.cls-3{letter-spacing:-0.17em;}.cls-4{letter-spacing:-0.13em;}.cls-15,.cls-5{font-size:20px;}.cls-6{letter-spacing:0.04em;}.cls-7{letter-spacing:0em;}.cls-8{letter-spacing:-0.04em;}.cls-9{font-size:12px;}.cls-10{letter-spacing:-0.04em;}.cls-11{letter-spacing:-0.1em;}.cls-12{letter-spacing:-0.03em;}.cls-13{letter-spacing:0.02em;}.cls-14{letter-spacing:-0.1em;}.cls-17{fill:black;}.cls-18{letter-spacing:-0.03em;}.cls-19{letter-spacing:-0.04em;}.cls-20{stroke:black;stroke-width:1.04px;}.cls-20,.cls-21,.cls-22{stroke-miterlimit:10;}.cls-21{stroke-width:2px;}.cls-22{stroke-width:3px;}</style></defs><title>página_contactos</title><polyline class="cls-1" points="134.56 170.19 183.8 170.19 183.8 122.73 201.68 109.47 213.81 109.47 213.81 170.19 201.68 170.19 201.68 51.55 238.23 51.55 238.23 96.21 227.07 96.21 227.07 2 275.22 2 275.22 112.26 290.73 112.26 290.73 170.19 279.41 170.19 279.41 129.71 290.73 129.71 305.31 144.28 305.31 170.19 348.5 170.19"/><text class="cls-2" transform="translate(132.13 211.05)">Praça<tspan class="cls-3" x="105.75" y="0"> </tspan><tspan class="cls-4" x="110.9" y="0">V</tspan><tspan x="139.05" y="0">elha</tspan><tspan class="cls-5"><tspan x="6.91" y="28">Sociedade Imobiliá</tspan><tspan class="cls-6" x="157.91" y="28">r</tspan><tspan class="cls-7" x="165.47" y="28">ia </tspan><tspan class="cls-8" x="184.15" y="28">S</tspan><tspan class="cls-7" x="193.15" y="28">.A</tspan></tspan><tspan class="cls-9"><tspan x="38.53" y="42.4">Rua D</tspan><tspan class="cls-10" x="71.61" y="42.4">r</tspan><tspan class="cls-11" x="75.13" y="42.4">.</tspan><tspan x="77.05" y="42.4"> </tspan><tspan class="cls-12" x="80.38" y="42.4">J</tspan><tspan x="83.65" y="42.4">ustino C</tspan><tspan class="cls-13" x="124.73" y="42.4">r</tspan><tspan x="129.03" y="42.4">uz</tspan><tspan class="cls-14" x="140.15" y="42.4">,</tspan><tspan x="142.07" y="42.4" xml:space="preserve"> Nº 154</tspan><tspan x="70.44" y="56.8">4700-314</tspan><tspan class="cls-11" x="116.35" y="56.8">,</tspan><tspan x="118.27" y="56.8" xml:space="preserve"> Braga</tspan></tspan></text><text class="cls-15" transform="translate(0 386.43)">+351 925 748 930</text><rect class="cls-16" x="64.81" y="319.43" width="18" height="30.25" rx="2.83" ry="2.83"/><rect class="cls-17" x="66.81" y="321.34" width="14" height="23.53" rx="2.2" ry="2.2"/><circle class="cls-17" cx="73.81" cy="347.41" r="1.05"/><text class="cls-15" transform="translate(336.83 386.43)">info@prac<tspan class="cls-18" x="82.92" y="0">a</tspan><tspan class="cls-19" x="90.24" y="0">v</tspan><tspan x="99.02" y="0">elha.pt</tspan></text><rect class="cls-16" x="395.37" y="327.99" width="33.31" height="21.63" rx="6.66" ry="6.66"/><polygon class="cls-20" points="411.94 340.8 435.97 326.11 389.64 326.11 411.94 340.8"/><text class="cls-15" transform="translate(168.5 386.43)">+351 253 682 061</text><path class="cls-16" d="M274.25,389.19c1.28-1.08,18.52-15.68,23-10l2.95,3.71a13.2,13.2,0,0,1-8.42,6.69l-2.6-3.28c-4.26,1.81-11.64,7.49-15,11.91l2.61,3.27a13.21,13.21,0,0,1-8.42,6.69l-2.95-3.71C262,400,273,390.26,274.25,389.19Z" transform="translate(-36.69 -58.45)"/><path class="cls-21" d="M287.14,506.19v16.46c0,5.53,2.71,9.47,7,9.47H314c4,0,6.76-3.83,6.76-8.11V506.19c0-5-2.71-7.89-6.31-7.89H294.36C290,498.3,287.14,501.57,287.14,506.19Z" transform="translate(-36.69 -58.45)"/><circle class="cls-22" cx="267.47" cy="456.76" r="9.13"/><circle class="cls-16" cx="277.12" cy="446.66" r="2.23"/><path class="cls-21" d="M244.24,506.3v16.47c0,5.52,2.7,9.47,7,9.47h19.84c4.06,0,6.77-3.84,6.77-8.12V506.3c0-5-2.71-7.89-6.32-7.89H251.45C247.06,498.41,244.24,501.68,244.24,506.3Z" transform="translate(-36.69 -58.45)"/><path class="cls-16" d="M258,516.9l-.11,13h5.94V517h5V511.5h-5.46v-4.36c0-1,.47-2.2,1.44-2.2,1.71,0,2.17,0,4,0v-4.29c-6.88-.34-10.85.85-10.92,4.73v6.16h-4.54v5.4H258" transform="translate(-36.69 -58.45)"/></svg>