<svg id="Camada_4" data-name="Camada 4" xmlns="http://www.w3.org/2000/svg" viewBox="0 0 112.84 160.28"><defs><style>.cls-1,.cls-2{fill:none;stroke:#222221;stroke-width:1.11px;}.cls-1{stroke-linecap:round;stroke-linejoin:round;}.cls-2{stroke-miterlimit:10;}</style></defs><title>icones_missão</title><path class="cls-1" d="M361.46,351.57H466.81a3.3,3.3,0,0,0,3.56-3.56V326.62c-.11-2.95-1.57-5.29-3.28-7.66l-14.21-18.82c-2.18-2.37-6.13-1.95-8.92,0-3.67,2.42-8.59,3.9-10.87,8.09L426,320.63c-2.09,2.74-3.11,4-6.41,4H402c-3,.41-4.5,1.66-6.41,3.62l-8.5,8.92H369.26c-2.74.09-4.83.42-6.69,2.79l-3.34,6.13C358.16,348.18,358.35,351.57,361.46,351.57Z" transform="translate(-358.08 -191.85)"/><path class="cls-1" d="M371.07,331.92c6-12,10.64-20.21,11-34.43V276c-4.86,1.07-8.54,5.82-12.12,10.87-6.18,9.67-15.19,4.18-9.48-6.83,3.81-8.17,11.74-14.37,25.09-18h16.72a47,47,0,0,0,22.3-17.7c2.93-3.67,11.84,1.81,7.25,7.8A39,39,0,0,1,406.47,271v20.06c7.91,3.23,14.26,6.14,14.36,13.38v15.75H406.47v-13.8c-3.37-2.25-12.4-5.43-12.4-5.43l-1.26,15s-3.8,9.72-6.82,15.89Z" transform="translate(-358.08 -191.85)"/><circle class="cls-1" cx="35.98" cy="53.87" r="11.57"/><path class="cls-2" d="M414.84,221.47l9.64,23-3,3.63L402.26,203a2.23,2.23,0,1,1,4.1-1.72l1.4,3.35c6.11-7.68,23.19-5.69,27.81-11.67l7,16.75c-3,4.61-25.81,4.52-27.76,11.78" transform="translate(-358.08 -191.85)"/><path class="cls-2" d="M425,245" transform="translate(-358.08 -191.85)"/><path class="cls-2" d="M426.12,259.87l1.95,4.46c1.49,2.69,5.48.09,3.9-3.16l-2.41-5.72Z" transform="translate(-358.08 -191.85)"/></svg>