<svg id="Camada_4" data-name="Camada 4" xmlns="http://www.w3.org/2000/svg" viewBox="0 0 112.76 159.74"><defs><style>.cls-1,.cls-2{fill:none;stroke:#222221;stroke-width:1.11px;}.cls-1{stroke-miterlimit:10;}.cls-2{stroke-linecap:round;stroke-linejoin:round;}</style></defs><title>icones_visão</title><path class="cls-1" d="M378.72,205l2-10.12c.53-2.55-.06-2.49,1.62-.44l6.81,7.77,10.6-1.23c2-.29,1.61-.27.83,1l-5.55,9.32,4.43,9.66c.76,1.63,1,1.62-.79,1.12l-10.47-2.38-8,7.38c-1.32,1.24-.92,1.26-1.11-.59l-1-10.69-9.79-5.5c-1.15-.59-1.3-.32,0-.84Z" transform="translate(-358.11 -192.39)"/><path class="cls-2" d="M467.49,351.57H362.21a3.29,3.29,0,0,1-3.55-3.55V326.64c.11-2.95,1.57-5.29,3.28-7.66l14.2-18.8c2.18-2.37,6.13-1.95,8.91,0,3.67,2.42,8.59,3.9,10.86,8.08l7.1,12.39c2.1,2.74,3.11,4,6.41,4H427c3,.41,4.5,1.65,6.4,3.62l8.5,8.91h17.82c2.74.1,4.83.42,6.69,2.79l3.34,6.13C470.78,348.18,470.6,351.57,467.49,351.57Z" transform="translate(-358.11 -192.39)"/><path class="cls-2" d="M457.88,331.93c-6-12-10.63-20.19-11-34.39V276.09c4.86,1.07,8.54,5.81,12.11,10.86,6.18,9.66,15.18,4.18,9.47-6.82-3.8-8.17-11.73-14.36-25.06-18H426.69a46.92,46.92,0,0,1-22.28-17.69c-2.93-3.67-11.84,1.81-7.24,7.8a38.89,38.89,0,0,0,25.34,18.8v20.05c-7.9,3.22-14.25,6.13-14.34,13.37v15.73h14.34V306.45c3.37-2.25,12.39-5.43,12.39-5.43l1.26,15s3.8,9.71,6.82,15.87Z" transform="translate(-358.11 -192.39)"/><circle class="cls-2" cx="76.81" cy="53.41" r="11.56"/></svg>